 <svg  version="1.0" xmlns="http://www.w3.org/2000/svg"  width="360.000000pt" height="252.3000pt" viewBox="0 0 300.0000 252.000000"  preserveAspectRatio="xMidYMid meet">  <g transform="translate(0.000000,211.000000) scale(0.100000,-0.100000)" fill="#ffffff" stroke="none"> <path d="M1205 2080 c-27 -5 -126 -18 -220 -30 -193 -24 -289 -42 -367 -69 -116 -40 -183 -85 -216 -146 -20 -37 -22 -229 -3 -320 16 -75 105 -357 141 -447 l28 -68 -42 -10 c-309 -79 -490 -197 -510 -333 -9 -57 23 -157 69 -220 38 -50 200 -177 275 -214 72 -35 155 -66 312 -117 81 -25 154 -54 163 -63 12 -12 19 -13 28 -4 15 15 27 14 27 -4 0 -17 11 -19 25 -6 6 5 41 3 85 -5 103 -20 634 -30 810 -16 154 13 290 44 417 97 49 20 124 50 168 67 138 54 210 102 347 237 82 81 125 134 81 100 -10 -7 -6 0 9 16 44 48 71 121 64 168 -17 104 -90 172 -248 231 l-58 22 84 57 c157 107 230 194 260 312 20 75 20 118 0 186 -21 71 -89 139 -160 160 -102 29 -233 8 -298 -49 -18 -16 -19 -16 -13 8 3 14 9 48 12 75 4 28 11 64 16 82 8 25 7 38 -7 60 -47 75 -97 106 -239 147 -99 29 -396 80 -554 96 -117 11 -411 11 -486 0z m670 -44 c150 -23 379 -74 439 -97 65 -24 117 -62 140 -99 28 -48 15 -90 -47 -154 -42 -44 -67 -60 -132 -84 -185 -69 -430 -104 -715 -101 -113 1 -250 1 -306 0 -113 -3 -287 23 -463 68 -127 33 -270 90 -271 109 0 6 -4 12 -10 12 -5 0 -10 5 -10 11 0 8 4 8 14 0 25 -21 178 -68 322 -99 390 -85 737 -98 1125 -42 274 40 372 73 445 150 40 42 56 78 42 95 -5 6 -17 22 -29 38 -47 62 -140 97 -387 143 -205 38 -386 54 -624 54 -120 0 -218 3 -218 8 0 4 129 7 288 6 220 0 312 -5 397 -18z m-777 7 c-10 -2 -26 -2 -35 0 -10 3 -2 5 17 5 19 0 27 -2 18 -5z m747 -49 c77 -9 142 -19 144 -20 2 -2 -27 -32 -65 -68 -38 -35 -66 -67 -63 -70 4 -4 37 25 74 63 60 62 72 70 99 67 17 -2 42 -4 56 -5 23 -1 23 -2 -15 -41 -21 -22 -35 -40 -29 -40 5 0 15 5 22 12 9 9 12 9 12 -1 0 -7 20 4 45 25 25 20 45 32 45 26 0 -6 6 -9 14 -6 8 3 23 1 32 -4 15 -9 14 -11 -9 -27 -15 -9 -27 -22 -27 -27 0 -6 16 2 36 17 l35 27 46 -17 c48 -19 107 -65 125 -99 10 -18 5 -26 -42 -68 -30 -26 -59 -48 -64 -48 -6 1 14 23 44 50 30 27 52 51 49 55 -4 3 -38 -24 -76 -60 -74 -68 -117 -93 -129 -73 -4 6 2 18 12 27 112 91 137 125 31 43 l-62 -49 -34 24 c-33 23 -76 37 -136 46 -16 3 -60 14 -97 25 -119 37 -224 45 -488 38 -135 -3 -276 -10 -315 -16 -74 -11 -264 -63 -350 -96 -11 -4 0 12 25 35 63 59 18 34 -53 -29 -32 -29 -60 -50 -63 -47 -3 3 25 35 63 72 37 37 55 58 38 47 -16 -11 -50 -41 -75 -66 -24 -25 -48 -46 -52 -46 -21 0 -2 23 65 81 39 34 74 67 76 72 5 13 -79 -53 -135 -106 -23 -21 -44 -34 -48 -29 -6 10 60 76 108 107 14 10 25 20 22 22 -7 7 -113 -76 -130 -102 l-16 -24 -48 25 c-68 36 -69 39 -33 79 43 49 39 59 -5 12 -20 -21 -38 -36 -41 -33 -4 3 2 15 13 27 30 34 141 119 154 119 6 0 24 10 38 21 l27 22 -38 -6 c-96 -15 -227 -105 -227 -156 0 -14 4 -33 10 -41 5 -9 5 -17 -1 -20 -5 -4 0 -15 12 -26 19 -16 22 -17 16 -2 -4 12 -2 15 9 11 7 -3 14 -10 14 -17 0 -16 -37 -46 -45 -38 -4 4 -5 -2 -2 -13 11 -40 18 -121 8 -100 -5 11 -10 28 -10 37 -1 9 -6 29 -13 45 -21 52 -20 66 3 60 20 -5 20 -4 5 12 -9 10 -16 22 -15 27 1 5 -1 17 -5 26 -13 29 13 86 56 123 55 46 170 89 291 107 53 8 97 12 97 9 0 -10 -62 -31 -71 -25 -5 3 -9 1 -9 -4 0 -5 -19 -15 -42 -21 -24 -6 -65 -21 -91 -34 -40 -20 -45 -25 -29 -29 11 -3 24 -2 29 2 10 10 169 60 189 60 9 0 22 6 29 14 14 13 124 30 300 46 140 13 522 4 680 -16z m275 -69 c-13 -14 -28 -25 -33 -25 -6 0 0 11 13 25 13 14 28 25 33 25 6 0 0 -11 -13 -25z m-1590 -49 c0 -2 -8 -10 -17 -17 -16 -13 -17 -12 -4 4 13 16 21 21 21 13z m-40 -35 c0 -5 -7 -12 -16 -15 -14 -5 -15 -4 -4 9 14 17 20 19 20 6z m1205 -40 c12 -5 -3 -8 -43 -8 -34 -1 -59 3 -56 8 6 11 71 11 99 0z m-487 -7 c-6 -5 -170 -34 -197 -34 -37 0 5 12 85 24 105 17 119 18 112 10z m252 -8 c0 -7 -30 -30 -67 -49 -86 -46 -70 -47 34 -2 49 21 94 34 117 33 l36 -1 -22 -26 c-22 -25 -21 -25 8 2 25 22 39 27 82 27 55 0 66 -9 30 -25 -12 -6 -24 -16 -26 -24 -3 -8 11 -2 30 12 19 15 43 27 54 27 16 0 14 -4 -11 -25 -16 -13 -25 -24 -19 -25 6 0 20 10 32 23 20 21 28 23 80 17 62 -8 145 -53 117 -64 -13 -4 -13 -9 -3 -25 9 -16 16 -17 35 -8 17 8 20 13 11 19 -18 11 -30 10 -23 -2 4 -6 -1 -7 -11 -3 -13 5 -10 10 17 25 23 13 26 17 10 12 -16 -4 -21 -3 -17 5 4 7 1 9 -7 5 -8 -3 -18 -1 -21 4 -3 5 10 9 29 8 19 0 35 -5 35 -10 0 -4 7 -5 16 -2 8 3 34 -3 57 -14 22 -11 45 -20 50 -20 4 0 15 -6 23 -14 12 -12 9 -16 -18 -25 -42 -15 -48 -13 -18 4 25 13 25 14 -12 11 -20 -2 -49 -11 -63 -20 -14 -9 -25 -12 -25 -6 0 15 68 42 83 33 8 -4 7 -1 -1 10 -13 15 -18 15 -48 2 -44 -18 -72 -34 -60 -35 6 0 0 -9 -12 -20 -25 -24 -126 -37 -352 -46 -206 -9 -707 26 -694 48 3 5 13 7 22 4 20 -6 136 54 139 72 4 17 4 17 -83 -23 -42 -19 -79 -33 -81 -31 -3 2 33 23 78 45 56 28 85 38 90 30 4 -8 12 -8 26 -1 11 6 28 11 39 12 53 2 104 9 113 15 6 3 11 2 11 -4 0 -13 -37 -24 -51 -15 -8 5 -9 3 -4 -6 6 -10 4 -12 -9 -7 -19 7 -68 -11 -134 -49 -72 -42 -40 -38 39 5 41 23 79 41 84 40 6 0 -16 -14 -49 -30 -32 -17 -56 -33 -53 -35 3 -3 40 12 83 34 44 21 109 51 147 67 37 15 67 32 67 36 0 4 15 10 33 12 17 2 33 5 35 5 1 1 2 -4 2 -12z m-100 -5 c0 -12 -68 -28 -105 -25 -16 1 -36 3 -43 3 -26 2 -3 17 29 19 18 1 34 4 36 6 8 7 83 5 83 -3z m-365 -60 c-8 -10 -42 -30 -75 -46 -65 -31 -73 -41 -37 -48 20 -4 19 -4 -4 -6 -29 -1 -44 20 -27 37 18 18 -31 25 -57 8 -28 -18 -39 -20 -30 -6 7 12 60 40 83 45 10 2 31 6 47 11 l30 7 -19 -22 c-22 -24 -13 -27 23 -7 17 9 20 15 11 21 -17 10 1 20 39 21 29 1 30 0 16 -15z m1450 -50 c-3 -6 -11 -11 -17 -11 -6 0 -6 6 2 15 14 17 26 13 15 -4z m-1955 -18 c0 -10 3 -29 6 -43 5 -17 3 -22 -3 -15 -15 14 -25 75 -13 75 6 0 10 -8 10 -17z m225 7 c3 -5 1 -10 -4 -10 -6 0 -11 5 -11 10 0 6 2 10 4 10 3 0 8 -4 11 -10z m35 0 c0 -5 -2 -10 -4 -10 -3 0 -8 5 -11 10 -3 6 -1 10 4 10 6 0 11 -4 11 -10z m2016 -25 c98 -41 160 -134 157 -238 -1 -72 -41 -158 -108 -234 -48 -55 -238 -189 -253 -179 -5 3 -18 -1 -28 -10 -18 -14 -17 -14 6 -4 24 11 24 11 5 -5 -11 -9 -78 -53 -148 -98 -71 -45 -156 -100 -189 -122 -34 -22 -84 -54 -112 -71 -34 -22 -56 -44 -68 -70 -15 -34 -17 -35 -11 -9 8 41 3 34 -51 -70 -45 -86 -84 -140 -94 -130 -2 2 8 19 22 36 15 18 45 67 66 110 22 43 46 81 54 86 7 4 21 24 29 43 9 19 29 58 44 85 25 42 58 127 58 146 0 5 58 79 83 105 7 8 11 18 8 23 -4 5 3 30 14 56 11 26 18 51 15 55 -3 5 11 45 31 90 33 76 52 160 35 160 -7 0 -101 -217 -101 -233 0 -5 -16 -47 -36 -93 -20 -47 -34 -87 -32 -90 3 -2 22 37 43 88 76 187 119 287 123 283 2 -2 -13 -41 -33 -87 -21 -46 -39 -97 -40 -113 -2 -28 -67 -167 -95 -205 -9 -12 -10 -10 -5 10 14 50 -13 5 -41 -71 -34 -87 -90 -194 -188 -352 -38 -62 -69 -117 -69 -124 0 -12 -29 -22 -80 -29 -15 -2 -54 -10 -85 -18 -31 -8 -87 -17 -124 -21 -56 -5 -68 -4 -68 8 0 8 -7 20 -15 27 -17 15 -19 7 -5 -21 9 -17 7 -19 -17 -19 -25 0 -26 1 -8 13 12 10 14 16 7 21 -19 12 -14 21 12 24 18 1 25 -5 30 -23 4 -14 11 -25 17 -25 6 0 7 5 3 12 -5 8 -2 9 9 5 10 -3 17 -2 17 2 0 5 -6 11 -12 14 -7 2 -9 8 -5 13 5 5 17 -2 29 -16 14 -17 18 -19 14 -7 -3 10 -2 16 2 13 9 -5 188 18 237 30 19 5 38 30 80 104 30 54 55 105 55 113 0 19 20 33 20 15 1 -7 9 3 19 22 9 19 26 51 36 70 11 19 18 41 16 49 -1 7 2 10 8 6 6 -3 11 -3 12 2 3 29 7 51 14 68 21 52 -23 -13 -70 -105 -27 -54 -81 -150 -119 -213 l-69 -115 -46 -5 c-25 -3 -62 -9 -81 -12 -33 -6 -34 -6 -16 9 11 9 29 14 40 10 15 -4 17 -3 8 4 -10 7 0 14 35 25 30 10 50 12 54 6 10 -17 94 132 86 154 -2 6 -11 -8 -20 -32 -18 -44 -67 -123 -67 -107 0 5 21 52 46 105 48 100 107 261 99 269 -2 3 -9 -8 -15 -24 -28 -77 -56 -143 -76 -179 -11 -22 -19 -47 -17 -55 4 -13 3 -13 -7 0 -10 13 -11 12 -6 -3 8 -24 -4 -44 -14 -26 -5 7 0 29 11 52 30 58 17 55 -15 -3 -15 -27 -24 -55 -20 -62 4 -6 3 -8 -4 -5 -12 8 -115 -14 -106 -22 3 -3 -18 -11 -48 -17 l-53 -12 61 2 c34 0 60 4 58 7 -2 4 9 9 24 12 15 3 35 9 46 13 16 6 17 4 8 -12 -8 -15 -41 -27 -131 -49 -67 -16 -121 -32 -121 -36 0 -8 93 12 191 41 51 15 68 25 78 46 6 15 14 24 17 21 3 -3 -1 -19 -10 -35 -12 -23 -27 -33 -66 -43 -27 -7 -50 -17 -50 -22 0 -4 -10 -5 -22 -2 -17 5 -19 4 -9 -4 11 -7 7 -11 -20 -16 -51 -9 -229 -11 -229 -2 0 4 -13 5 -30 2 -20 -4 -30 -1 -30 7 0 9 -3 8 -10 -2 -6 -10 -10 -11 -10 -2 0 6 -5 12 -10 12 -6 0 -4 -13 5 -30 19 -37 19 -35 -10 -38 -17 -1 -25 3 -25 14 0 21 -41 94 -52 94 -5 0 3 -20 17 -43 38 -66 36 -69 -50 -52 -14 3 -32 27 -55 74 -40 84 -53 88 -15 6 14 -32 24 -60 21 -63 -3 -3 -22 31 -43 74 -41 89 -41 89 -48 82 -3 -2 13 -41 34 -85 28 -58 45 -82 62 -86 13 -3 21 -9 17 -12 -3 -3 -16 -1 -29 4 -25 9 -74 96 -99 176 -7 22 -15 35 -17 28 -3 -7 5 -33 16 -59 12 -25 18 -50 15 -55 -3 -5 7 -25 22 -44 14 -19 23 -35 19 -35 -4 0 -14 8 -21 17 -12 17 -13 16 -14 -4 0 -20 8 -25 70 -38 33 -7 130 -18 146 -16 11 1 32 -3 47 -8 14 -6 29 -6 32 -2 3 5 26 3 52 -5 25 -8 75 -14 110 -14 34 0 63 -4 63 -9 0 -11 -241 -7 -316 5 -27 4 -53 7 -57 6 -21 -6 -135 43 -161 69 -15 16 -31 27 -36 24 -4 -2 -17 10 -30 27 -12 17 -17 27 -10 23 8 -5 11 -3 9 4 -3 7 -7 11 -10 9 -11 -6 -40 25 -35 37 2 7 -9 32 -24 56 -16 24 -26 46 -22 49 4 3 7 11 6 18 -1 6 -2 17 -3 23 0 5 -6 7 -13 3 -7 -4 -8 -3 -4 4 4 7 2 20 -4 29 -11 17 -11 17 -6 1 3 -10 4 -18 2 -18 -9 0 -96 142 -91 150 3 4 -17 53 -43 108 -27 54 -52 109 -55 122 -3 13 -9 22 -11 19 -7 -7 49 -153 75 -197 18 -32 18 -59 -2 -47 -5 3 -6 -1 -3 -9 3 -9 11 -14 16 -13 6 1 13 -5 15 -13 4 -13 3 -13 -7 0 -10 13 -11 13 -7 0 2 -8 10 -15 17 -15 7 0 15 -6 18 -14 3 -8 0 -11 -7 -7 -7 5 -8 1 -4 -10 4 -12 8 -14 11 -5 2 7 14 -2 28 -23 26 -38 33 -64 9 -32 -25 33 -17 7 10 -32 14 -20 25 -32 25 -26 0 6 7 11 14 11 11 0 12 -5 6 -17 -5 -9 -7 -25 -5 -36 2 -10 4 -23 4 -29 1 -5 6 -3 12 5 9 13 10 12 5 -3 -3 -10 -2 -15 3 -12 5 3 13 0 17 -6 4 -7 3 -9 -4 -5 -5 3 -12 1 -14 -5 -2 -6 -16 6 -31 28 -15 21 -27 34 -27 29 0 -5 -9 -1 -20 9 -11 10 -20 25 -20 33 0 9 -3 12 -6 9 -13 -12 -87 107 -90 144 -2 23 -46 99 -54 94 -15 -9 -151 418 -149 467 0 24 46 -115 79 -245 22 -82 49 -147 61 -147 5 0 2 17 -5 38 -11 31 -56 205 -71 279 -3 12 0 32 5 45 10 22 10 22 7 -4 -3 -17 0 -25 6 -21 6 4 8 -5 5 -21 -6 -31 40 -222 74 -305 15 -39 18 -56 10 -59 -8 -2 -2 -22 17 -59 16 -30 27 -62 24 -69 -3 -8 0 -14 6 -14 6 0 20 -19 31 -43 19 -41 98 -132 107 -123 2 2 -14 28 -36 57 -45 59 -137 236 -128 246 4 3 12 -6 18 -21 7 -14 16 -26 21 -26 4 0 -2 21 -16 48 -62 122 -133 336 -118 356 5 6 1 35 -8 64 l-16 53 -12 -38 -11 -38 4 40 c4 37 4 38 -6 12 -8 -19 -8 -37 0 -59 6 -17 9 -33 7 -36 -3 -2 -12 20 -20 49 -9 29 -14 55 -11 57 3 3 5 -1 5 -8 0 -7 2 -11 5 -8 8 8 -15 108 -25 108 -4 0 -11 17 -15 38 -3 20 -9 47 -12 60 -3 12 -1 22 5 22 5 0 13 -20 16 -45 4 -25 13 -57 21 -72 13 -25 14 -22 9 33 -8 96 -14 121 -29 134 -34 28 -11 27 35 -2 l51 -32 -2 -50 c-3 -56 40 -266 54 -266 5 0 6 10 2 23 -3 12 -14 56 -24 97 -10 41 -21 85 -25 98 -5 13 -3 22 3 22 6 0 11 -6 11 -12 0 -24 63 -228 70 -228 4 0 -10 57 -32 128 -22 70 -42 141 -44 157 l-4 30 10 -32 c13 -40 23 -44 14 -5 -5 19 -3 24 4 17 6 -5 12 -25 14 -44 4 -49 26 -51 31 -4 3 28 4 22 5 -22 1 -33 9 -85 17 -115 15 -56 12 -81 -4 -39 -7 16 -10 18 -10 7 -1 -22 9 -48 19 -48 17 0 19 35 5 99 -11 48 -13 78 -6 106 9 42 11 39 16 -40 6 -78 19 -156 27 -161 10 -6 3 64 -12 122 -4 17 -4 48 0 70 l8 39 1 -40 c2 -42 26 -153 35 -163 10 -9 7 20 -8 74 -17 64 -11 103 15 101 14 -1 19 -9 20 -32 l1 -30 8 30 c8 29 8 29 10 -10 3 -38 3 -39 7 -7 7 53 23 36 23 -25 0 -32 4 -64 9 -72 5 -8 7 13 4 53 -3 37 -2 66 3 66 5 0 8 -18 6 -40 -3 -25 0 -40 7 -40 6 0 11 -9 11 -19 0 -11 5 -23 10 -26 14 -9 13 0 -7 56 -14 38 -15 51 -5 61 9 9 12 4 12 -24 0 -20 4 -40 10 -43 5 -3 10 -15 10 -25 0 -10 5 -22 11 -25 6 -4 10 -1 8 6 -5 40 2 109 12 109 7 0 8 -11 4 -30 -8 -35 10 -42 18 -7 l6 22 258 0 c142 0 295 5 341 11 45 5 82 7 82 3 0 -4 -38 -10 -85 -14 -47 -4 -87 -11 -90 -15 -3 -5 16 -7 42 -5 26 3 112 10 190 15 131 10 398 52 411 65 3 3 -6 5 -19 6 -22 1 -21 1 5 10 17 4 32 6 35 4 2 -3 -1 -5 -8 -5 -7 0 -10 -4 -7 -9 4 -5 2 -21 -4 -35 -10 -27 -4 -56 11 -56 5 0 14 20 20 45 6 24 17 50 25 56 18 14 18 10 -1 -34 -18 -43 -19 -50 -5 -42 14 9 13 0 -11 -56 -12 -27 -19 -52 -15 -56 3 -3 11 8 17 26 9 25 14 29 21 19 5 -8 6 -2 2 17 -4 24 -3 27 6 15 10 -13 11 -12 6 4 -4 11 3 44 16 75 26 65 26 66 33 60 2 -3 -5 -29 -16 -58 -11 -30 -18 -56 -15 -58 2 -3 14 23 27 56 12 34 26 64 32 68 13 8 1 -26 -43 -121 -20 -45 -40 -88 -43 -96 -4 -11 -6 -10 -7 5 0 15 -5 11 -16 -15 -8 -19 -20 -38 -27 -42 -6 -4 -8 -11 -3 -15 4 -4 14 1 22 11 20 28 18 6 -3 -23 -12 -17 -12 -22 -2 -19 7 2 27 40 45 84 44 111 93 212 94 194 0 -12 2 -12 9 -2 7 11 9 10 14 -3 4 -9 3 -13 -3 -10 -6 3 -10 1 -10 -5 0 -6 -4 -8 -10 -5 -13 8 -13 8 8 -53 l19 -52 12 41 c7 22 15 38 18 35 3 -3 0 -19 -6 -37 -6 -17 -8 -42 -5 -56 8 -28 -41 -184 -65 -211 -9 -9 -17 -28 -17 -42 0 -14 -4 -34 -9 -45 -8 -20 -8 -20 8 0 9 11 17 15 17 9 0 -5 -5 -15 -10 -20 -6 -6 -12 -24 -14 -40 -5 -35 -13 -59 -33 -100 -18 -35 -11 -90 10 -77 7 4 -6 -12 -29 -35 -22 -23 -45 -42 -49 -42 -5 0 -18 -8 -29 -17 l-21 -18 20 25 c11 14 26 29 33 33 7 5 10 13 6 18 -3 5 0 16 6 24 14 17 6 49 -11 43 -6 -2 -17 -19 -25 -38 -12 -31 -12 -33 1 -16 11 14 15 16 15 5 0 -8 -14 -30 -30 -49 -29 -33 -41 -68 -20 -55 6 3 10 -1 10 -9 0 -9 -5 -16 -11 -16 -5 0 -7 -5 -3 -12 5 -7 16 -1 33 19 14 16 71 55 126 86 110 62 165 97 151 97 -4 0 -1 12 9 26 9 14 14 28 12 31 -3 3 -17 -14 -31 -36 -15 -23 -29 -41 -32 -41 -4 0 0 10 8 23 8 12 21 32 29 45 8 12 19 20 25 18 6 -2 16 5 23 16 7 11 15 18 17 15 3 -3 -2 -16 -11 -30 -14 -23 -14 -25 1 -31 21 -8 31 -1 49 35 9 17 24 29 35 29 11 0 20 5 20 11 0 6 7 9 15 5 8 -3 15 -1 15 4 0 6 5 10 11 10 14 0 115 71 162 114 22 20 36 40 32 47 -5 7 -17 1 -36 -17 -16 -15 -29 -25 -29 -21 0 13 53 67 60 62 5 -3 11 2 14 11 4 9 13 14 21 10 23 -8 65 83 72 157 4 51 2 70 -15 102 -43 85 -130 133 -227 125 -20 -2 -10 -5 27 -10 68 -9 137 -47 175 -97 25 -33 28 -44 27 -106 -2 -57 -6 -73 -22 -86 -11 -9 -27 -29 -37 -44 -10 -15 -20 -26 -22 -23 -2 2 7 22 21 44 23 37 24 41 9 62 -11 15 -13 33 -9 61 8 51 -17 90 -74 113 -101 40 -220 2 -267 -87 -13 -25 -13 -31 1 -52 25 -38 20 -80 -10 -104 -15 -12 -34 -21 -43 -21 -10 0 -12 3 -5 8 33 21 53 115 21 95 -6 -4 -8 0 -4 11 4 10 3 15 -3 11 -21 -13 -1 66 21 84 21 17 19 48 -3 35 -17 -10 7 29 31 50 11 10 19 22 16 25 -2 4 6 8 17 8 18 2 16 -4 -16 -36 -21 -22 -33 -41 -28 -45 10 -6 61 46 63 65 1 5 2 14 3 20 1 15 33 27 73 28 38 1 53 18 21 24 -13 3 1 3 30 1 30 -3 69 -11 88 -19z m-1936 5 c0 -5 -2 -10 -4 -10 -3 0 -8 5 -11 10 -3 6 -1 10 4 10 6 0 11 -4 11 -10z m1359 1 c9 -6 10 -11 2 -15 -6 -4 -11 -2 -11 3 0 6 -5 11 -11 11 -5 0 -8 -4 -5 -8 3 -5 0 -9 -7 -9 -7 0 -25 -3 -42 -7 -29 -6 -29 -6 -5 5 14 6 32 15 40 19 19 11 22 11 39 1z m251 -11 c0 -5 -3 -10 -7 -10 -5 0 -19 -10 -33 -21 -14 -11 -19 -18 -12 -14 6 3 12 0 13 -7 0 -7 5 -2 10 11 14 36 21 19 8 -19 -10 -28 -14 -31 -23 -17 -10 12 -16 4 -35 -49 -25 -70 -37 -82 -20 -21 5 21 7 42 3 49 -4 7 -3 8 4 4 7 -4 12 -4 13 1 3 39 14 61 37 80 30 24 42 28 42 13z m-395 -18 c-20 -19 -65 -24 -65 -7 0 6 12 11 26 12 15 1 29 4 32 7 3 4 10 6 15 6 6 0 2 -8 -8 -18z m421 -55 c-14 -23 -32 -62 -40 -85 -9 -24 -22 -53 -31 -65 -14 -20 -15 -19 -15 28 0 58 35 129 51 104 5 -8 9 -9 9 -3 0 12 38 64 46 64 3 0 -6 -19 -20 -43z m-176 24 c-8 -5 -26 -12 -40 -15 l-25 -7 25 15 c14 9 32 15 40 15 13 0 13 -1 0 -8z m70 -1 c0 -5 -5 -10 -11 -10 -5 0 -8 -4 -5 -9 4 -5 -3 -7 -14 -4 -34 9 -22 25 23 32 4 0 7 -3 7 -9z m-1687 -25 c-3 -9 -8 -14 -10 -11 -3 3 -2 9 2 15 9 16 15 13 8 -4z m-207 -28 c11 4 12 2 18 -62 2 -22 6 -65 10 -95 l5 -55 -18 70 c-10 39 -19 64 -20 56 -1 -14 -15 -7 -16 7 -1 4 -4 16 -8 27 -3 11 -8 33 -11 49 -5 26 -4 27 12 13 9 -8 22 -13 28 -10z m1758 -28 c-10 -23 -19 -38 -21 -32 -5 14 25 88 33 81 2 -3 -3 -25 -12 -49z m-1354 25 c8 -2 42 -10 75 -18 55 -13 57 -16 15 -20 -8 0 -36 7 -61 16 -26 9 -48 15 -50 14 -2 -2 -11 3 -19 12 -13 14 -12 15 5 8 11 -4 27 -10 35 -12z m1878 -21 c69 -45 78 -125 25 -204 -73 -109 -189 -216 -297 -275 -43 -23 -56 -26 -109 -20 -33 3 -62 8 -64 10 -4 4 80 259 88 266 5 5 29 67 29 77 0 2 -4 1 -10 -2 -5 -3 -8 1 -5 9 18 58 17 58 40 2 11 -25 12 -35 4 -30 -9 5 -10 2 -6 -10 4 -10 3 -15 -3 -11 -6 3 -10 1 -10 -5 0 -6 -5 -8 -12 -4 -7 5 -9 2 -5 -9 3 -9 1 -18 -6 -20 -7 -3 1 -10 16 -16 33 -13 76 4 101 41 23 32 20 91 -4 113 -20 18 -20 19 7 48 35 37 98 66 143 67 23 0 52 -10 78 -27z m-584 -10 c-4 -16 -10 -32 -15 -37 -5 -5 -4 6 1 25 6 18 10 35 10 36 0 2 2 3 5 3 3 0 2 -12 -1 -27z m-901 -20 c-13 -2 -35 -2 -50 0 -16 2 -5 4 22 4 28 0 40 -2 28 -4z m-323 -28 c0 -14 -4 -25 -10 -25 -5 0 -10 11 -10 25 0 14 5 25 10 25 6 0 10 -11 10 -25z m1916 -173 c-17 -16 -18 -16 -5 5 7 12 15 20 18 17 3 -2 -3 -12 -13 -22z m-66 -23 c-7 -11 -14 -18 -17 -15 -3 3 0 12 7 21 18 21 23 19 10 -6z m-51 -61 c-17 -18 -37 -46 -45 -61 -8 -15 -19 -25 -24 -22 -5 3 -14 -4 -20 -15 -6 -11 -15 -18 -20 -15 -5 3 -13 -3 -19 -12 -6 -10 -11 -14 -11 -9 0 5 -9 1 -20 -9 -11 -10 -20 -13 -20 -8 0 12 61 61 73 59 5 -1 15 11 23 27 8 15 21 27 29 27 8 0 15 4 15 9 0 14 44 61 57 61 7 0 -2 -15 -18 -32z m-425 -53 c-4 -8 -8 -15 -10 -15 -2 0 -4 7 -4 15 0 8 4 15 10 15 5 0 7 -7 4 -15z m203 -133 c-10 -10 -17 -26 -17 -35 0 -9 -5 -19 -11 -22 -22 -14 -20 5 6 45 15 23 29 39 32 36 4 -3 -1 -14 -10 -24z m-142 -22 c17 -1 16 -3 -8 -16 -35 -19 -99 -10 -90 13 4 11 15 14 42 9 20 -3 45 -6 56 -6z m-1791 -16 c3 -9 4 -20 0 -25 -3 -5 0 -9 5 -9 6 0 21 -21 33 -47 12 -27 23 -51 25 -55 2 -4 -18 -18 -44 -32 -26 -14 -41 -25 -33 -25 8 -1 31 9 50 20 28 17 36 19 42 8 71 -120 101 -167 156 -239 36 -47 74 -91 84 -98 25 -18 23 -23 -18 -55 -47 -39 -56 -26 -13 20 21 22 27 34 16 30 -11 -4 -16 -3 -12 3 3 6 2 10 -4 10 -5 0 -21 -21 -35 -46 -25 -45 -32 -64 -20 -51 4 4 14 -8 23 -25 27 -53 142 -106 302 -138 227 -45 682 -21 811 43 27 13 48 20 48 16 0 -11 94 59 99 74 2 5 -1 7 -8 3 -7 -5 -9 -1 -5 8 3 9 11 16 16 16 6 0 8 7 4 15 -9 25 2 40 65 91 32 26 57 49 54 52 -2 3 -30 -17 -60 -43 -31 -26 -59 -45 -62 -42 -6 7 33 47 87 90 25 20 28 24 10 16 -14 -7 -42 -25 -62 -41 -20 -16 -39 -25 -42 -20 -7 11 24 40 82 77 23 15 40 30 38 33 -7 6 -98 -53 -121 -78 -19 -21 -35 -26 -35 -10 0 5 32 32 72 60 39 27 67 50 62 50 -5 0 16 14 46 31 96 54 231 141 227 146 -3 2 -31 -13 -64 -34 -33 -21 -96 -58 -141 -83 -45 -25 -82 -49 -82 -55 0 -5 -20 -23 -45 -38 -24 -16 -56 -42 -70 -59 -14 -16 -25 -25 -25 -19 0 6 -7 8 -16 4 -14 -5 -15 -3 -4 17 29 55 83 119 117 142 92 60 99 64 84 45 -7 -9 -9 -17 -4 -17 13 0 140 90 172 121 13 13 20 17 16 9 -5 -8 4 -3 20 13 28 27 45 34 45 18 0 -21 -42 -53 -155 -120 -148 -87 -152 -90 -139 -90 13 -1 273 155 300 180 28 27 38 24 18 -6 -9 -14 -12 -25 -8 -25 5 0 15 9 22 20 7 11 17 20 22 20 6 0 3 -11 -6 -25 -9 -14 -12 -25 -6 -25 5 0 17 12 27 26 12 19 20 23 29 15 7 -6 16 -8 19 -4 4 3 7 1 7 -5 0 -6 -4 -14 -10 -17 -5 -3 -10 -1 -10 6 0 8 -4 8 -15 -1 -8 -7 -15 -20 -15 -28 0 -13 3 -12 15 4 10 13 14 15 15 5 0 -11 4 -11 18 2 26 24 36 21 18 -5 -25 -36 -18 -46 9 -13 13 16 27 26 31 22 4 -3 1 -13 -6 -22 -7 -9 -10 -18 -6 -22 3 -4 12 2 20 12 7 10 18 15 25 11 8 -5 4 -17 -14 -38 -14 -17 -23 -33 -20 -36 3 -4 18 8 32 26 24 32 26 32 44 16 11 -10 26 -31 35 -48 9 -19 10 -26 2 -18 -10 10 -23 2 -65 -40 -29 -29 -53 -57 -53 -62 0 -6 25 14 55 44 35 35 55 48 55 38 0 -9 -3 -18 -7 -20 -5 -2 -24 -21 -43 -43 -19 -21 -26 -33 -15 -25 11 8 29 25 40 37 27 30 31 29 29 -4 -2 -38 -3 -40 -14 -23 -8 12 -16 8 -50 -25 -22 -21 -40 -43 -40 -47 0 -15 105 59 132 93 33 41 50 113 24 103 -9 -3 -16 -10 -16 -16 0 -5 4 -6 10 -3 6 4 7 -2 1 -17 -4 -13 -17 -25 -27 -27 -18 -3 -18 -3 -1 17 13 14 15 22 7 27 -6 4 -9 13 -6 21 3 7 -7 28 -22 46 -20 26 -21 29 -4 14 12 -11 25 -17 28 -14 7 7 -87 79 -136 103 -55 28 -124 44 -144 33 -38 -21 -22 -1 18 24 42 25 42 25 77 7 l34 -19 -45 5 c-36 4 -31 1 27 -14 178 -49 246 -118 229 -236 -17 -113 -157 -235 -415 -365 -190 -95 -410 -156 -650 -181 -145 -15 -564 -6 -721 16 -294 40 -594 116 -755 191 -71 33 -149 84 -141 92 3 3 16 -4 29 -16 24 -22 175 -97 182 -90 3 2 -36 24 -86 48 -69 33 -103 57 -143 101 -99 106 -126 182 -90 252 61 118 160 178 409 248 121 33 112 32 119 13z m1735 -28 c-9 -10 -80 -56 -85 -56 -3 0 3 14 13 30 13 23 25 30 47 30 16 0 27 -2 25 -4z m53 -29 c-12 -13 -20 -26 -16 -29 3 -4 -4 -11 -15 -18 -12 -6 -21 -7 -21 -1 0 11 -19 9 -38 -3 -22 -13 -23 0 -2 19 13 12 20 14 20 5 0 -7 7 -5 18 7 9 10 13 13 8 6 -5 -8 -7 -16 -4 -19 3 -2 18 12 33 31 15 20 30 34 33 31 3 -4 -4 -17 -16 -29z m-200 -49 c-7 -7 -12 -8 -12 -2 0 14 12 26 19 19 2 -3 -1 -11 -7 -17z m132 -7 c4 -5 -15 -21 -40 -35 -54 -30 -61 -32 -44 -11 7 8 18 15 25 15 6 0 20 9 30 20 21 23 22 23 29 11z m-1434 -202 c0 -6 -4 -7 -10 -4 -5 3 -10 11 -10 16 0 6 5 7 10 4 6 -3 10 -11 10 -16z m-769 -170 c17 -22 29 -42 27 -45 -12 -11 -88 111 -88 138 1 7 7 -2 15 -20 8 -19 29 -52 46 -73z m1879 22 c-17 -33 -11 -47 10 -21 11 14 20 19 20 13 0 -7 3 -12 8 -12 22 4 32 -3 32 -21 0 -12 -7 -20 -17 -20 -9 0 -14 -3 -10 -6 3 -4 -21 -36 -53 -73 -84 -92 -75 -102 11 -11 80 85 89 80 14 -9 -54 -65 -101 -87 -230 -111 -113 -21 -397 -24 -544 -6 -74 9 -137 19 -139 21 -3 3 7 14 22 26 15 12 25 24 22 26 -3 3 -19 -6 -36 -21 -50 -42 -72 -33 -27 11 33 33 40 36 57 25 11 -6 29 -12 40 -12 27 0 25 -6 -7 -36 -16 -14 -21 -22 -13 -18 8 4 24 15 35 25 19 17 28 17 85 8 36 -6 133 -11 215 -11 162 0 217 10 321 58 32 15 67 28 77 28 10 1 30 14 44 31 14 16 33 30 41 31 9 2 -2 -15 -24 -37 -23 -22 -52 -41 -67 -43 -14 -1 -32 -7 -39 -13 -7 -6 -31 -16 -53 -23 -22 -7 -44 -17 -50 -23 -7 -7 -4 -8 8 -3 46 16 70 19 63 7 -15 -23 12 -10 28 14 15 23 45 38 31 15 -3 -5 -2 -17 3 -26 7 -13 21 -2 76 57 66 71 122 153 82 120 -15 -12 -16 -12 -10 5 5 18 5 18 -10 0 -9 -11 -16 -23 -16 -28 0 -4 -9 -8 -20 -8 -26 0 -25 23 2 60 25 34 34 39 18 11z m-1053 -17 c12 -26 12 -26 -7 -9 -20 18 -26 35 -12 35 4 0 12 -12 19 -26z m1163 -14 c0 -5 -2 -10 -4 -10 -3 0 -8 5 -11 10 -3 6 -1 10 4 10 6 0 11 -4 11 -10z m639 -37 c-20 -25 -48 -53 -53 -53 -2 0 -24 -18 -48 -40 -23 -23 -67 -54 -95 -70 -56 -32 -68 -36 -58 -20 9 15 -8 12 -33 -6 -12 -8 -27 -14 -34 -12 -10 4 143 98 159 98 5 0 44 27 88 59 89 66 93 68 74 44z m-1784 -13 c4 -6 -11 -29 -33 -51 -36 -36 -42 -38 -50 -22 -8 14 -3 24 26 50 40 35 48 38 57 23z m1135 -21 c-7 -11 -14 -18 -17 -15 -8 8 5 36 17 36 7 0 7 -6 0 -21z m-1136 -44 c-22 -18 -41 -31 -43 -29 -8 8 62 73 72 67 5 -3 -8 -21 -29 -38z m426 1 c0 -6 -7 -2 -15 8 -8 11 -15 25 -15 30 0 6 7 2 15 -8 8 -11 15 -25 15 -30z m46 8 c10 -2 14 3 10 13 -5 13 -4 14 9 3 24 -20 18 -30 -19 -30 -22 0 -36 6 -40 16 -11 28 -6 39 9 20 8 -11 22 -21 31 -22z m-406 4 c0 -7 -16 -23 -35 -36 -19 -12 -35 -27 -35 -33 0 -5 -5 -7 -11 -3 -7 4 4 21 27 45 40 41 54 48 54 27z m1032 -10 c-7 -7 -12 -8 -12 -2 0 14 12 26 19 19 2 -3 -1 -11 -7 -17z m24 -25 c-11 -11 -17 4 -9 23 7 18 8 18 11 1 2 -10 1 -21 -2 -24z m-1026 10 c0 -4 -12 -17 -27 -29 -16 -12 -24 -26 -20 -31 5 -4 21 6 37 23 15 18 33 29 39 25 7 -5 -1 -19 -23 -40 -33 -32 -36 -33 -66 -20 l-31 14 38 32 c38 32 53 40 53 26z m700 -12 c0 -10 -69 -25 -78 -17 -3 3 0 7 6 7 26 3 31 4 38 12 10 10 34 9 34 -2z m287 -18 c-9 -9 -20 -13 -24 -9 -4 4 1 14 11 22 25 18 35 8 13 -13z m-382 -3 c-3 -5 -15 -10 -26 -10 -11 0 -17 5 -14 10 3 6 15 10 26 10 11 0 17 -4 14 -10z m245 6 c0 -2 -8 -10 -17 -17 -16 -13 -17 -12 -4 4 13 16 21 21 21 13z m-1494 -83 c-7 -8 -52 9 -76 27 -23 18 -20 18 27 -2 29 -12 51 -23 49 -25z m34 -13 c0 -5 -4 -10 -10 -10 -5 0 -10 5 -10 10 0 6 5 10 10 10 6 0 10 -4 10 -10z m1967 -7 c3 -8 -4 -11 -17 -8 -24 5 -68 -15 -94 -40 -16 -16 -86 -49 -86 -40 0 2 18 14 41 25 23 12 38 24 35 28 -8 7 84 52 103 49 8 -1 16 -7 18 -14z m-1937 -3 c0 -5 -4 -10 -10 -10 -5 0 -10 5 -10 10 0 6 5 10 10 10 6 0 10 -4 10 -10z m50 -13 c19 5 27 -7 14 -20 -10 -10 -54 15 -47 26 5 8 8 8 10 0 2 -6 13 -9 23 -6z m50 -17 c0 -5 7 -6 17 -3 11 4 14 3 9 -5 -6 -10 -22 -10 -54 -3 -2 1 0 6 3 11 8 13 25 13 25 0z m1700 2 c0 -5 -16 -16 -35 -25 -19 -9 -35 -24 -35 -33 0 -10 -5 -14 -15 -10 -8 3 -22 -2 -31 -11 -13 -14 -17 -14 -24 -2 -7 11 -14 9 -33 -9 -18 -17 -26 -20 -30 -10 -3 10 -9 8 -20 -7 -8 -11 -18 -17 -21 -14 -9 8 57 68 79 72 11 2 28 7 37 11 10 5 23 6 30 4 7 -3 30 6 53 19 46 26 45 26 45 15z m-1600 -21 c3 -1 -2 -6 -11 -11 -18 -11 -61 -2 -53 11 4 8 29 7 64 0z m30 -10 c0 -13 -26 -32 -33 -24 -8 7 11 33 24 33 5 0 9 -4 9 -9z m40 -10 c0 -13 -29 -35 -37 -28 -7 8 15 37 28 37 5 0 9 -4 9 -9z m40 -9 c0 -4 -9 -13 -20 -20 -22 -13 -27 -3 -8 16 14 14 28 16 28 4z m33 -24 c-13 -12 -25 -19 -29 -16 -9 9 18 37 36 38 10 0 8 -6 -7 -22z m37 -8 c-14 -10 -27 -17 -29 -15 -8 8 22 35 38 35 12 0 10 -5 -9 -20z m60 13 c0 -13 -33 -43 -48 -43 -12 0 -10 6 8 25 23 24 40 32 40 18z m1110 -28 c-19 -19 -39 -35 -44 -35 -6 0 5 16 24 35 19 19 38 35 44 35 6 0 -5 -16 -24 -35z m-1075 5 c-10 -11 -23 -20 -28 -20 -6 0 -2 9 8 20 10 11 23 20 28 20 6 0 2 -9 -8 -20z m1025 -15 c-19 -19 -38 -35 -42 -35 -11 0 54 68 66 69 6 1 -5 -15 -24 -34z m-941 9 c-9 -11 -14 -12 -19 -3 -6 8 -9 8 -14 0 -4 -6 -17 -11 -29 -11 -19 1 -18 3 7 13 17 7 38 14 49 14 15 2 16 -1 6 -13z m927 8 c-9 -15 -86 -65 -92 -60 -7 8 65 68 82 68 8 0 13 -4 10 -8z m-692 -22 c212 -16 525 -8 610 16 14 4 8 -6 -19 -30 l-40 -35 -285 0 c-197 -1 -316 4 -385 14 -55 8 -104 15 -109 15 -5 0 -1 9 9 21 15 16 27 19 55 15 19 -3 93 -10 164 -16z"/> <path d="M1981 1918 c-39 -39 -68 -78 -58 -78 2 0 27 27 56 60 29 33 51 60 49 60 -2 0 -23 -19 -47 -42z"/> <path d="M1997 1902 c-26 -26 -47 -54 -47 -61 0 -8 10 -1 22 15 12 16 35 44 52 62 46 50 26 38 -27 -16z"/> <path d="M2035 1910 c-21 -22 -35 -40 -30 -40 9 0 81 80 73 80 -2 0 -22 -18 -43 -40z"/> <path d="M2129 1904 c-17 -18 -19 -23 -6 -18 14 5 16 2 10 -12 -6 -16 -3 -16 24 4 16 11 36 29 44 38 13 16 12 16 -8 6 -12 -7 -25 -17 -28 -22 -3 -6 -11 -10 -17 -10 -6 0 -3 9 7 20 27 30 3 24 -26 -6z"/> <path d="M2240 1895 c-7 -8 -8 -15 -2 -15 5 0 15 7 22 15 7 8 8 15 2 15 -5 0 -15 -7 -22 -15z"/> <path d="M565 1865 c-18 -14 -24 -24 -16 -25 10 0 2 -13 -19 -35 -56 -58 -29 -47 39 16 35 32 59 59 54 59 -5 0 -18 -9 -28 -20 -10 -11 -23 -20 -28 -20 -6 0 0 11 13 25 30 32 24 32 -15 0z"/> <path d="M594 1816 c-44 -40 -77 -76 -74 -79 3 -3 40 29 84 69 43 41 76 77 73 80 -2 3 -40 -29 -83 -70z"/> <path d="M653 1831 c-26 -21 -61 -53 -78 -71 -16 -19 4 -5 45 30 92 77 95 80 88 80 -3 0 -28 -17 -55 -39z"/> <path d="M694 1834 c-62 -47 -124 -105 -124 -117 0 -6 21 10 48 34 38 36 85 74 131 106 2 2 2 5 -1 8 -3 3 -27 -11 -54 -31z"/> <path d="M2291 1800 c-74 -63 -98 -90 -65 -72 25 14 151 131 142 132 -4 0 -39 -27 -77 -60z"/> <path d="M2351 1814 c-17 -14 -29 -29 -26 -33 2 -5 -9 -21 -26 -37 -17 -16 -35 -38 -41 -49 -6 -11 20 9 58 44 38 36 74 69 79 74 6 5 -1 4 -15 -3 l-25 -13 19 22 c26 29 14 27 -23 -5z m4 -24 c-3 -5 -11 -10 -16 -10 -6 0 -7 5 -4 10 3 6 11 10 16 10 6 0 7 -4 4 -10z"/> <path d="M1396 1765 c-8 -8 -20 -15 -26 -15 -15 0 -180 -77 -180 -84 0 -2 26 6 58 19 89 35 192 84 192 90 0 11 -29 4 -44 -10z"/> <path d="M1515 1742 c-16 -11 -37 -27 -45 -37 -14 -18 -13 -18 18 1 30 17 71 54 61 54 -2 0 -17 -8 -34 -18z"/> <path d="M1605 1736 c-16 -13 -28 -26 -25 -29 3 -3 20 8 38 24 39 35 29 39 -13 5z"/> <path d="M1100 1705 c-14 -8 -20 -14 -15 -14 6 0 21 6 35 14 14 8 21 14 15 14 -5 0 -21 -6 -35 -14z"/> <path d="M2026 1699 c4 -7 0 -9 -12 -5 -11 3 -25 2 -32 -3 -25 -15 17 -22 45 -8 22 12 23 15 9 20 -11 4 -15 3 -10 -4z"/> <path d="M544 1584 c4 -12 7 -44 8 -70 0 -33 3 -42 8 -29 5 15 10 5 19 -40 7 -33 20 -85 28 -115 9 -30 16 -62 15 -70 -1 -24 31 -150 39 -150 8 0 -5 62 -21 105 -6 14 -8 30 -6 34 3 4 -11 67 -30 141 -51 199 -52 201 -59 208 -4 4 -5 -3 -1 -14z"/> <path d="M571 1570 c0 -8 4 -24 9 -35 9 -20 9 -20 9 0 0 11 -4 27 -9 35 -9 13 -10 13 -9 0z"/> <path d="M2510 1505 c-24 -24 -42 -47 -39 -49 3 -3 24 17 47 44 54 62 50 64 -8 5z"/> <path d="M780 1481 c0 -26 33 -151 40 -151 5 0 0 30 -10 67 -10 36 -16 72 -13 80 3 7 0 13 -6 13 -6 0 -11 -4 -11 -9z"/> <path d="M2275 1435 c-14 -47 -61 -156 -103 -237 -2 -5 1 -8 6 -8 12 0 74 125 99 200 10 30 21 57 24 60 4 3 3 14 -1 25 -6 16 -11 7 -25 -40z"/> <path d="M666 1440 c4 -19 11 -44 15 -55 6 -14 7 -9 3 15 -4 19 -11 44 -15 55 -6 14 -7 9 -3 -15z"/> <path d="M562 1445 c0 -11 4 -31 8 -45 6 -20 8 -21 8 -5 0 11 -4 31 -8 45 -6 20 -8 21 -8 5z"/> <path d="M2261 1300 c-28 -67 -51 -127 -51 -133 1 -7 26 46 56 117 30 71 53 131 50 133 -2 2 -27 -51 -55 -117z"/> <path d="M551 1394 c0 -11 3 -14 6 -6 3 7 2 16 -1 19 -3 4 -6 -2 -5 -13z"/> <path d="M831 1400 c0 -8 4 -24 9 -35 5 -13 9 -14 9 -5 0 8 -4 24 -9 35 -5 13 -9 14 -9 5z"/> <path d="M2845 1389 c-4 -6 -5 -12 -2 -15 2 -3 7 2 10 11 7 17 1 20 -8 4z"/> <path d="M667 1194 c8 -25 17 -43 20 -41 7 7 -19 87 -28 87 -4 0 -1 -20 8 -46z"/> <path d="M2820 1215 c-7 -9 -11 -18 -8 -20 3 -3 11 1 18 10 7 9 11 18 8 20 -3 3 -11 -1 -18 -10z"/> <path d="M2175 1127 c-5 -19 -10 -25 -15 -17 -7 12 -17 -11 -50 -113 -6 -21 -9 -41 -6 -44 9 -10 46 86 40 105 -5 13 -4 14 4 3 7 -10 13 -5 22 23 7 21 14 35 18 32 3 -3 -19 -58 -47 -122 -29 -63 -51 -117 -49 -120 3 -2 18 26 35 63 69 153 74 168 64 194 l-9 24 -7 -28z"/> <path d="M2246 1055 c-9 -26 -7 -32 5 -12 6 10 9 21 6 23 -2 3 -7 -2 -11 -11z"/> <path d="M721 1016 c-1 -4 18 -47 41 -95 23 -47 42 -93 43 -101 1 -21 55 -123 62 -116 3 3 -9 28 -26 56 -17 28 -29 55 -26 60 3 5 -17 53 -44 107 -28 54 -50 94 -50 89z"/> <path d="M800 1006 c0 -13 63 -152 80 -176 11 -16 19 -32 18 -37 -3 -10 69 -140 82 -148 18 -11 10 9 -26 70 -20 32 -32 61 -26 63 5 1 -9 45 -31 97 -42 99 -63 126 -27 35 11 -29 18 -55 16 -58 -3 -2 -10 6 -15 19 -34 88 -71 158 -71 135z m110 -191 c0 -5 -5 -3 -10 5 -5 8 -10 20 -10 25 0 6 5 3 10 -5 5 -8 10 -19 10 -25z"/> <path d="M769 978 c22 -58 60 -135 76 -153 22 -26 18 -15 -30 88 -22 48 -43 87 -47 87 -4 0 -4 -10 1 -22z"/> <path d="M2434 915 c-10 -8 -14 -15 -8 -15 5 0 19 7 30 15 10 8 14 15 8 15 -5 0 -19 -7 -30 -15z"/> <path d="M906 890 c10 -37 63 -154 69 -148 2 2 -8 31 -23 64 -16 32 -34 70 -40 84 l-12 25 6 -25z"/> <path d="M976 863 c9 -21 20 -49 25 -62 5 -13 12 -22 14 -19 7 6 -38 118 -48 118 -4 0 0 -17 9 -37z"/> <path d="M940 889 c-1 -13 51 -121 56 -116 3 3 -8 31 -25 63 -16 33 -30 56 -31 53z"/> <path d="M1000 875 c0 -13 32 -66 36 -62 6 6 -23 67 -31 67 -3 0 -5 -2 -5 -5z"/> <path d="M1951 738 c-19 -57 -37 -109 -39 -117 -3 -9 -1 -12 6 -8 6 4 25 51 43 105 17 53 34 103 37 110 2 6 0 12 -5 12 -5 0 -24 -46 -42 -102z"/> <path d="M858 760 c101 -188 114 -216 86 -185 l-27 30 22 -35 c11 -19 26 -34 32 -32 6 1 8 -2 4 -8 -9 -15 76 -133 88 -121 7 7 6 15 -2 25 -7 8 -10 19 -8 24 3 4 -7 30 -23 57 -17 28 -30 46 -30 42 0 -5 12 -28 26 -53 14 -24 24 -44 21 -44 -12 0 -128 203 -120 209 5 3 -6 33 -24 66 -30 56 -46 71 -23 22 9 -20 9 -20 -2 -3 -35 51 -46 55 -20 6z m62 -85 c0 -5 -5 -3 -10 5 -5 8 -10 20 -10 25 0 6 5 3 10 -5 5 -8 10 -19 10 -25z"/> <path d="M800 721 c0 -5 5 -13 10 -16 6 -3 10 -2 10 4 0 5 -4 13 -10 16 -5 3 -10 2 -10 -4z"/> <path d="M1140 513 c1 -16 69 -138 70 -125 0 14 -58 132 -65 132 -3 0 -5 -3 -5 -7z"/> <path d="M950 501 c0 -5 5 -13 10 -16 6 -3 10 -2 10 4 0 5 -4 13 -10 16 -5 3 -10 2 -10 -4z"/> <path d="M1610 479 c-25 -4 -69 -8 -97 -8 -33 -1 -53 -5 -53 -12 0 -14 96 -6 180 15 60 15 42 18 -30 5z"/> <path d="M1190 475 c0 -12 40 -84 50 -90 16 -10 12 3 -16 51 -24 41 -34 52 -34 39z"/> <path d="M990 446 c0 -2 8 -10 18 -17 15 -13 16 -12 3 4 -13 16 -21 21 -21 13z"/> <path d="M1280 437 c0 -14 31 -69 36 -64 3 3 -4 20 -15 38 -12 19 -21 30 -21 26z"/> <path d="M1618 423 c7 -3 16 -2 19 1 4 3 -2 6 -13 5 -11 0 -14 -3 -6 -6z"/> <path d="M1648 363 c7 -3 16 -2 19 1 4 3 -2 6 -13 5 -11 0 -14 -3 -6 -6z"/> <path d="M1608 353 c7 -3 16 -2 19 1 4 3 -2 6 -13 5 -11 0 -14 -3 -6 -6z"/> <path d="M2426 1367 c3 -10 9 -15 12 -12 3 3 0 11 -7 18 -10 9 -11 8 -5 -6z"/> <path d="M527 953 c-15 -2 -25 -8 -22 -12 2 -5 -6 -6 -18 -4 -29 6 -134 -34 -155 -58 -16 -19 -38 -27 -28 -10 10 16 -44 3 -81 -20 -21 -12 -53 -36 -71 -53 -36 -33 -83 -117 -81 -144 0 -9 6 -1 13 18 12 32 13 29 8 -44 -4 -63 -2 -77 8 -71 10 6 12 4 7 -7 -11 -31 66 -111 158 -163 129 -73 155 -85 228 -110 87 -29 357 -89 365 -81 7 8 -2 10 -192 56 -160 38 -327 96 -350 121 -8 9 -6 10 7 6 9 -4 17 -3 17 2 0 5 -27 18 -60 30 -59 22 -114 66 -104 83 3 5 0 17 -6 26 -7 9 -1 4 14 -11 14 -16 24 -32 21 -37 -3 -5 -1 -11 4 -14 21 -13 21 16 0 52 -16 27 -28 38 -40 35 -21 -6 -49 33 -49 68 -1 61 9 112 25 127 11 11 15 12 10 3 -6 -10 -4 -12 4 -7 6 4 9 11 7 15 -9 13 105 111 128 111 6 0 -2 -11 -19 -25 -16 -13 -24 -24 -17 -25 7 0 11 -4 8 -9 -4 -5 -1 -11 5 -13 7 -2 5 -9 -5 -17 -14 -12 -16 -11 -10 5 7 19 7 19 -14 0 -27 -24 -27 -25 1 -23 23 2 101 57 82 57 -6 0 -16 -5 -23 -12 -6 -6 -14 -9 -17 -6 -4 3 8 16 25 28 16 12 28 26 25 30 -9 14 43 24 58 11 14 -11 19 -10 125 26 23 8 42 19 42 24 0 4 8 6 18 2 13 -5 14 -3 6 6 -9 10 -30 5 -95 -23 -45 -20 -85 -36 -88 -36 -15 0 43 32 102 55 37 15 67 31 67 36 0 5 -3 8 -7 8 -5 -1 -20 -4 -36 -6z m-220 -123 c-14 -11 -29 -20 -34 -20 -11 1 37 40 49 40 6 0 -1 -9 -15 -20z m-124 -35 c-10 -13 -25 -27 -33 -30 -8 -4 -2 8 14 24 36 37 43 40 19 6z m-50 -272 c-3 -7 -6 -13 -8 -13 -2 0 -5 6 -8 13 -3 8 1 14 8 14 7 0 11 -6 8 -14z"/> <path d="M518 873 c-38 -14 -68 -30 -68 -35 0 -6 8 -7 18 -3 9 4 46 14 82 23 36 9 56 18 46 20 -15 3 -16 6 -5 13 25 15 -4 9 -73 -18z"/> <path d="M540 833 c-72 -29 -76 -31 -68 -38 6 -6 126 42 143 57 16 14 -7 8 -75 -19z"/> <path d="M415 842 c-11 -2 -25 -8 -31 -13 -6 -5 -18 -7 -27 -3 -8 3 -18 0 -23 -7 -5 -9 -2 -10 12 -5 10 4 3 -7 -16 -23 -48 -42 -29 -39 27 4 25 19 53 35 62 35 14 0 14 -2 1 -10 -13 -8 -13 -10 2 -10 9 0 19 4 22 8 8 14 -8 28 -29 24z"/> <path d="M563 811 c-23 -9 -45 -20 -50 -25 -10 -11 29 1 82 25 50 22 24 23 -32 0z"/> <path d="M215 790 c-36 -40 -84 -136 -85 -168 0 -28 17 -62 30 -62 6 0 10 18 10 40 0 41 14 84 39 113 8 9 12 20 9 23 -7 7 -48 -59 -64 -105 -11 -30 -13 -32 -14 -12 0 34 33 99 76 149 35 41 34 61 -1 22z"/> <path d="M613 768 c-13 -6 -23 -15 -23 -20 0 -7 55 15 69 28 9 8 -25 2 -46 -8z"/> <path d="M2337 689 c-65 -39 -116 -73 -114 -75 3 -3 51 23 108 57 124 74 147 89 134 89 -6 0 -63 -32 -128 -71z"/> <path d="M625 730 c-16 -11 -23 -20 -15 -20 17 0 71 39 55 40 -5 0 -23 -9 -40 -20z"/> <path d="M2682 697 c-51 -52 -56 -75 -6 -26 32 30 60 69 51 69 -1 0 -22 -19 -45 -43z"/> <path d="M135 709 c-4 -6 -5 -12 -2 -15 2 -3 7 2 10 11 7 17 1 20 -8 4z"/> <path d="M653 697 c-18 -12 -33 -25 -33 -29 0 -9 68 30 76 43 9 15 -9 9 -43 -14z"/> <path d="M213 698 c-6 -7 -14 -24 -18 -38 -5 -20 -3 -19 15 9 21 33 23 54 3 29z"/> <path d="M2155 669 c-53 -40 -68 -57 -30 -35 17 10 2 -8 -33 -39 -34 -31 -60 -60 -58 -64 3 -4 34 20 69 53 42 39 61 64 53 68 -6 4 -6 8 -1 8 6 0 21 9 35 20 41 32 9 21 -35 -11z"/> <path d="M2699 664 c-21 -23 -26 -33 -14 -26 25 12 60 50 53 57 -2 3 -20 -12 -39 -31z"/> <path d="M221 654 c0 -11 3 -14 6 -6 3 7 2 16 -1 19 -3 4 -6 -2 -5 -13z"/> <path d="M183 595 c1 -48 27 -48 27 0 0 23 -5 35 -14 35 -10 0 -14 -11 -13 -35z"/> <path d="M222 600 c0 -19 2 -27 5 -17 2 9 2 25 0 35 -3 9 -5 1 -5 -18z"/> <path d="M244 518 c5 -31 5 -32 -9 -14 -8 11 -15 24 -15 30 0 5 -3 7 -6 4 -3 -4 2 -20 10 -37 18 -34 46 -33 46 2 0 20 0 20 15 1 8 -11 15 -14 15 -6 0 15 -36 52 -51 52 -8 0 -9 -11 -5 -32z"/> <path d="M2625 455 c-66 -46 -171 -109 -233 -139 -119 -60 -144 -78 -62 -46 123 49 306 155 390 228 69 59 23 38 -95 -43z"/> <path d="M2165 444 c-33 -30 -51 -50 -40 -45 29 15 111 89 105 94 -3 3 -32 -19 -65 -49z"/> <path d="M2157 402 c-31 -25 -55 -48 -52 -50 3 -3 14 3 25 13 11 10 23 16 26 13 3 -3 -6 -14 -19 -24 -22 -18 -33 -54 -16 -54 12 0 129 83 124 88 -3 3 -30 -12 -61 -32 -73 -49 -82 -39 -10 11 30 21 55 42 56 46 0 5 -13 -1 -29 -12 -43 -31 -51 -25 -11 8 57 48 30 42 -33 -7z"/> <path d="M2198 330 c-20 -11 -40 -25 -43 -31 -7 -10 51 17 85 40 25 18 -3 11 -42 -9z"/> <path d="M2125 233 c-106 -28 -331 -68 -465 -82 -195 -21 -545 -12 -690 18 -56 12 -66 6 -14 -8 127 -33 497 -50 703 -32 209 19 404 58 551 110 76 27 26 24 -85 -6z"/> <path d="M903 389 c-18 -16 -33 -35 -33 -41 0 -6 1 -9 3 -7 1 2 18 21 36 42 42 45 38 48 -6 6z"/> <path d="M2134 125 c-10 -8 -14 -15 -8 -15 5 0 19 7 30 15 10 8 14 15 8 15 -5 0 -19 -7 -30 -15z"/> <path d="M2080 110 c-14 -11 -20 -20 -14 -20 6 0 19 9 29 20 23 25 17 25 -15 0z"/> </g> </svg> 